<?xml version="1.0" encoding="utf-8"?>
<!-- Generator: Adobe Illustrator 22.0.0, SVG Export Plug-In . SVG Version: 6.00 Build 0)  -->
<svg version="1.1" id="Object" xmlns="http://www.w3.org/2000/svg" xmlns:xlink="http://www.w3.org/1999/xlink" x="0px" y="0px"
	 viewBox="0 0 233 175" style="enable-background:new 0 0 233 175;" xml:space="preserve">
<style type="text/css">
	.st0{fill:url(#SVGID_1_);}
	.st1{fill:#AD8023;}
	.st2{fill:#C9AD61;}
</style>
<g>
	<linearGradient id="SVGID_1_" gradientUnits="userSpaceOnUse" x1="1.7906" y1="87.5" x2="163.8089" y2="87.5">
		<stop  offset="0" style="stop-color:#FFD7C9"/>
		<stop  offset="1" style="stop-color:#FFEEE5"/>
	</linearGradient>
	<path class="st0" d="M163.6,65.8c-0.7-1.2-4.1-0.9-4.1,0.7c-3.2-0.1-3.6,1.1-6.3,0.4c-2.4-1.2-1.3-6.5-2.4-8
		c-0.4-0.8-0.5-1.6-0.7-2.5c-0.6-0.7-1.2-1.5-1.8-2.2c1.1-0.8,0.4-1.9-2-3.4c0.1,0,3.5-4.4,3.5-4.7c1.3-1.3,0.4-3.5,0.3-3.5
		c-2,1-5-7.1-5.1-6.7c-0.7,0.9-1.1,2-1.2,3.2c-1.1,0.4-2.9-1.3-3.7-1.9c0-2.8-5.7-6.8-6.4-9.4c0-0.1-2-1.8-2.2-2.1
		c-0.7-0.9-1.3-1.9-1.8-2.9c-1.1-2.2-1.9-4.6-2.6-7c-0.9-3.2-0.8-10-5.4-10.2c-2-1.2-8.4-3.6-10.4-1.5c0-0.6-9.9-1-10.1-0.9
		c0.9-0.8-8-1.9-9-1.8c-4.4,0.5-3.4,4.7-8.9,4c-3.6-2.6-24.3,0.5-24.9,5c-2.2,1.7-4.1,3.3-6.3,5.1c-0.3,0-1.1,1.5-1.3,1.9
		c-1.1,0.5-2.2,0.9-3.5,0.9c5-0.1-10.5,0.3-7.9,0.3c3.6,0-0.1,3.2-0.6,3.5c-0.3,0.3-0.6,0.6-0.9,0.9c0,0-1.9-1.2-1.9-1.2
		c0,0-0.6-1-0.6-0.9c0.6-0.3-0.3-3.4-1.2-3.3c2.3-0.3-7.4,10.5-8.2,10.8c3.2-0.8-7.7,4.9-6.7,5c0,0.4-3-0.2-3.1,2
		c-1.4-1.4-1.2,4.8,0,6.3c-1.3,1.9-3.5,4.6-4.6-0.5c-0.1,0.4-0.3,0.6-0.5,0.5C10,41.9,9,42,7.9,42c-1.1-1.2-1.8,5.9-2.5,7.9
		c-0.1,0.7-1.3,6.3-3.1,6.3c-0.1,0.1,0,0.3,0.3,0.5c-1.5,0.2-0.3,4.1-0.3,4.3c0.4,2.9,2.4,16.2,1.9,16.9c0.1,1.7,1.7,2.8,1.8,4.5
		c0,1,0.1,2-0.4,3.2c1.8-0.9,6,3.5,4.9,5c5-2.5,3.5,14.3,3.1,14.5c0.4,0.6,9.1,5.1,4.3,7.5c0.7,0.8,0.2,1.4-0.4,2
		c-0.7,0.4-1.5,5.1-1.3,5.3c0,1.2-2.9,0.4-2.1,2.6c-0.3-0.9,6.9,8.6,4.7,7.5c-0.5,0-4.1,2.1-2.6,3.2c0.5,6.6-7.6,30.3,7.9,26.2
		c0.3,0,0.6,0,0.9,0c0.8-0.4,1.1,2.5,0.9,2.8c-0.4,0-2.9-0.4-3.1,0c-1.2,0.3-2.3,0.9-3.2,1.9c-0.6,0.2-2.6,0.5-3,1
		c-1.5,1.8,6.4,0.4,4.6,0.6c1-1.5,16.9,10.3,16.7,6.6c0-4,3.1,0.7,3.9,0.2c-0.2-0.3-0.5-0.5-0.7-0.8c0.7-1.2,1.4-1.6,2.2-1.3
		c0.2-0.6,1.9-1.3,2.5-1.6c0.7,0,3.8-1.7,2.8-2.9c0,0,0.1,0,0.1,0c0.2,0.4,0.4,0.2,0.7-0.5c3-3.8,7.3,2.1,7.8,4.7
		c-1.1,0.3-1.2,1.5-0.2,3.5c0.1-1.4,1.8-1.7,1.8-0.1c1-0.2,1.6-0.6,1.6-1.2c1.1-1.7,1.8-2,1.8-3.8c-0.3-0.3,6.6-2.8,5.1-2.8
		c1,0.5,1.8,0,2.5-0.6c1.3-0.3,3.5-3.4,5.1-0.6c5.4,7.7,19.3-12.6,19.2-12.6c1.5,0.1,3.9,0.8,4.7,1.3c-0.2-0.1-0.3,0-0.4,0.1
		c0,0,0.1-0.1,0.1-0.1c-2,0.1,0.6,3.6,0.6,0.3c1.7-6.3,3.7,0.8,6.5,0.3c0.2,0,9-2,7.4-2.8c0.4-0.5,0.4-1.1,0-1.6c0-0.1,0-0.2,0-0.3
		c2.3-4.5,5.6-0.2,6.1-0.5c2.7-1.4,1.3-4.6,3.3-5.8c2.2-1.4,8.4-3.2,10.1-5.4c-0.1,0,2.9-1.6,2.9-2.2c0.9,0.5,3.1-0.6,4.4,0
		c0.1,0,3.4,1.8,3.5,0.3c2.5,1.6,0.6-3.1,0-3.8c0.1-2,0.9-3.3,1.3-5.1c0.8,0.1,0.3-1,0.9-0.9c0.4,0.2,0.6,0.1,0.7-0.2
		c0,0.1,0,0.1-0.1,0.2c0.7-0.5,4-12.3,5.3-11.4c0,0,0,0,0,0c-0.4-0.7,0.6-2.7-0.2-3.7c-0.3,0.3,2.5-3.1,2.5-2.2
		c0-1.5,6.2-1.3,5.3-3.2c0.7-0.2,1.3-1.7,1.6-2.5c0.4-0.1,0.6-0.4,0.6-0.7c0.4,0-1.2-2.4-1.9-3.1c0.1-0.3,1.3-3.1,1.2-3.1
		c0,0,0.1,0,0.1-0.1c0,0.1,0,0.1,0,0.2c2.6-0.5,2.8-5.6-0.6-5.7c0-0.1-1.3-0.2-1.3-0.3c0,1.4-3.7-4.6-1.7-3.9c2.3-0.7,3.8-3,2.9-6.5
		c-0.8-2.4-0.6-3.3-0.1-6C159.9,71.8,164.9,68,163.6,65.8z"/>
	<g>
		<g>
			<path class="st1" d="M163.2,30.8c-1.2,0.5-2,1.5-2.4,2.9s-0.6,3.7-0.6,6.9v62.1c0,3.1,0.2,5.4,0.6,6.8c0.4,1.4,1.2,2.4,2.4,2.9
				c1.2,0.5,3.1,0.9,5.8,1v2.5c-5.1-0.2-12.5-0.4-22.2-0.4c-10.1,0-17.5,0.1-22.2,0.4v-2.5c3-0.1,5.2-0.4,6.6-1
				c1.4-0.5,2.3-1.5,2.8-2.9c0.5-1.4,0.8-3.7,0.8-6.8V38.5l-30.2,77.3h-2L67.3,35.4v56c0,6.2,0.2,10.6,0.7,13.3
				c0.5,2.7,1.6,4.7,3.3,6c1.7,1.3,4.6,2.2,8.6,2.8v2.5c-3.3-0.2-8-0.4-14.1-0.4c-4.4,0-7.9,0.1-10.4,0.4v-2.5
				c2.6-0.6,4.5-1.5,5.8-2.7c1.2-1.2,2.1-3.1,2.5-5.6c0.4-2.5,0.6-6.2,0.6-11.2V40.6c0-3.1-0.2-5.4-0.7-6.8
				c-0.4-1.4-1.3-2.4-2.5-2.9c-1.2-0.5-3.1-0.9-5.8-1v-2.5c2.5,0.2,6,0.4,10.4,0.4c10.1,0,18.7-0.1,25.9-0.4l23.7,53.2L136,27.7
				h10.9c9.7,0,17.1-0.1,22.2-0.4v2.5C166.3,29.9,164.4,30.2,163.2,30.8z"/>
		</g>
		<g>
			<path class="st2" d="M57.5,135.3H62c2,0,3.6,0.5,4.7,1.6c1.1,1.1,1.7,2.6,1.7,4.5c0,1.9-0.6,3.5-1.7,4.5
				c-1.1,1.1-2.7,1.6-4.7,1.6h-4.5V135.3z M61.8,145.8c2.8,0,4.2-1.4,4.2-4.3c0-2.9-1.4-4.3-4.2-4.3h-2.1v8.6H61.8z"/>
			<path class="st2" d="M74,147.6v-12.2h8.2v1.7h-6v3.4h5.6v1.7h-5.6v3.6h6v1.7H74z"/>
			<path class="st2" d="M88.9,147.3c-0.8-0.3-1.5-0.6-2.1-1.1l0.8-1.6c0.6,0.4,1.2,0.8,1.9,1c0.6,0.2,1.4,0.3,2.1,0.3
				c0.8,0,1.5-0.1,2-0.4c0.5-0.3,0.7-0.7,0.7-1.3c0-0.5-0.2-0.8-0.6-1.1c-0.4-0.2-1.1-0.5-2.1-0.7c-1.5-0.3-2.6-0.8-3.3-1.3
				c-0.7-0.5-1-1.3-1-2.3c0-0.7,0.2-1.4,0.6-1.9c0.4-0.6,0.9-1,1.7-1.3c0.7-0.3,1.5-0.5,2.5-0.5c0.9,0,1.7,0.1,2.4,0.4
				s1.4,0.6,1.9,1.1l-0.7,1.6c-1.1-0.9-2.3-1.3-3.6-1.3c-0.8,0-1.4,0.2-1.9,0.5c-0.5,0.3-0.7,0.8-0.7,1.3c0,0.5,0.2,0.8,0.6,1.1
				c0.4,0.3,1.1,0.5,2.1,0.7c1,0.2,1.8,0.5,2.5,0.8c0.6,0.3,1.1,0.6,1.5,1.1c0.3,0.4,0.5,1,0.5,1.7c0,0.7-0.2,1.4-0.6,1.9
				c-0.4,0.5-0.9,1-1.7,1.3c-0.7,0.3-1.6,0.4-2.6,0.4C90.6,147.7,89.8,147.6,88.9,147.3z"/>
			<path class="st2" d="M101.9,147.6v-12.2h2.2v12.2H101.9z"/>
			<path class="st2" d="M120.4,141v5.9c-0.6,0.3-1.2,0.5-2,0.7c-0.8,0.2-1.6,0.2-2.4,0.2c-1.3,0-2.3-0.3-3.3-0.8
				c-0.9-0.5-1.6-1.2-2.1-2.2c-0.5-0.9-0.7-2.1-0.7-3.4c0-1.3,0.2-2.4,0.7-3.3c0.5-0.9,1.2-1.7,2.1-2.2c0.9-0.5,2-0.8,3.2-0.8
				c0.9,0,1.7,0.1,2.4,0.4c0.7,0.3,1.4,0.6,1.9,1.1l-0.8,1.6c-0.6-0.4-1.1-0.8-1.7-1c-0.5-0.2-1.1-0.3-1.8-0.3
				c-1.3,0-2.2,0.4-2.9,1.1c-0.6,0.8-1,1.9-1,3.3c0,1.5,0.3,2.6,1,3.4c0.7,0.8,1.7,1.1,3,1.1c0.8,0,1.6-0.1,2.4-0.3v-3.1h-2.6V141
				H120.4z"/>
			<path class="st2" d="M134.5,135.3h2.1v12.2H135l-6.6-8.6v8.6h-2.1v-12.2h1.6l6.6,8.5V135.3z"/>
			<path class="st2" d="M152.3,147.3c-0.8-0.3-1.5-0.6-2.1-1.1l0.8-1.6c0.6,0.4,1.2,0.8,1.9,1c0.6,0.2,1.4,0.3,2.1,0.3
				c0.8,0,1.5-0.1,2-0.4c0.5-0.3,0.7-0.7,0.7-1.3c0-0.5-0.2-0.8-0.6-1.1c-0.4-0.2-1.1-0.5-2.1-0.7c-1.5-0.3-2.6-0.8-3.3-1.3
				c-0.7-0.5-1-1.3-1-2.3c0-0.7,0.2-1.4,0.6-1.9c0.4-0.6,0.9-1,1.7-1.3c0.7-0.3,1.5-0.5,2.5-0.5c0.9,0,1.7,0.1,2.4,0.4
				c0.8,0.3,1.4,0.6,1.9,1.1l-0.7,1.6c-1.1-0.9-2.3-1.3-3.6-1.3c-0.8,0-1.4,0.2-1.9,0.5c-0.5,0.3-0.7,0.8-0.7,1.3
				c0,0.5,0.2,0.8,0.6,1.1c0.4,0.3,1.1,0.5,2.1,0.7c1,0.2,1.8,0.5,2.5,0.8c0.6,0.3,1.1,0.6,1.5,1.1c0.3,0.4,0.5,1,0.5,1.7
				c0,0.7-0.2,1.4-0.6,1.9c-0.4,0.5-0.9,1-1.7,1.3c-0.7,0.3-1.6,0.4-2.6,0.4C154,147.7,153.1,147.6,152.3,147.3z"/>
			<path class="st2" d="M167.9,147.6v-10.4h-4v-1.8h10.2v1.8h-4v10.4H167.9z"/>
			<path class="st2" d="M180.3,146.4c-0.9-0.9-1.3-2.1-1.3-3.8v-7.3h2.2v7.4c0,1.1,0.2,1.8,0.7,2.4c0.5,0.5,1.2,0.8,2.2,0.8
				c0.9,0,1.7-0.3,2.2-0.8c0.5-0.5,0.7-1.3,0.7-2.4v-7.4h2.2v7.3c0,1.7-0.4,2.9-1.3,3.8c-0.9,0.9-2.1,1.3-3.8,1.3
				C182.4,147.7,181.2,147.3,180.3,146.4z"/>
			<path class="st2" d="M195.2,135.3h4.5c2,0,3.6,0.5,4.7,1.6c1.1,1.1,1.7,2.6,1.7,4.5c0,1.9-0.6,3.5-1.7,4.5
				c-1.1,1.1-2.7,1.6-4.7,1.6h-4.5V135.3z M199.6,145.8c2.8,0,4.2-1.4,4.2-4.3c0-2.9-1.4-4.3-4.2-4.3h-2.1v8.6H199.6z"/>
			<path class="st2" d="M211.7,147.6v-12.2h2.2v12.2H211.7z"/>
			<path class="st2" d="M222.3,146.9c-0.9-0.5-1.5-1.2-2-2.2c-0.5-0.9-0.7-2.1-0.7-3.3c0-1.3,0.2-2.4,0.7-3.3c0.5-0.9,1.1-1.7,2-2.2
				c0.9-0.5,1.9-0.8,3.1-0.8c1.2,0,2.2,0.3,3.1,0.8s1.5,1.2,2,2.2c0.5,0.9,0.7,2,0.7,3.3c0,1.3-0.2,2.4-0.7,3.3
				c-0.5,0.9-1.1,1.7-2,2.2c-0.9,0.5-1.9,0.8-3.1,0.8C224.2,147.7,223.2,147.5,222.3,146.9z M228.1,144.8c0.6-0.8,0.9-1.9,0.9-3.3
				c0-1.4-0.3-2.5-0.9-3.3c-0.6-0.8-1.5-1.2-2.6-1.2c-1.1,0-2,0.4-2.6,1.1s-0.9,1.9-0.9,3.3c0,1.5,0.3,2.6,0.9,3.3
				c0.6,0.8,1.5,1.2,2.6,1.2C226.5,145.9,227.4,145.6,228.1,144.8z"/>
		</g>
	</g>
</g>
</svg>
