<?xml version="1.0" encoding="utf-8"?>
<!-- Generator: Adobe Illustrator 22.0.0, SVG Export Plug-In . SVG Version: 6.00 Build 0)  -->
<svg version="1.1" id="Objects" xmlns="http://www.w3.org/2000/svg" xmlns:xlink="http://www.w3.org/1999/xlink" x="0px" y="0px"
	 viewBox="0 0 286 50" style="enable-background:new 0 0 286 50;" xml:space="preserve">
<style type="text/css">
	.st0{fill:none;}
	.st1{fill:#2E4254;}
</style>
<title>Artboard 253</title>
<path class="st0" d="M42.6,24.2v7.6l3.2,4.6c0.3-0.1,0.5-0.2,0.8-0.2c0.7,0,1.4,0.4,1.8,1c0.3,0.4,0.5,0.6,0.9,0.6s0.6-0.2,0.9-0.6
	c0.3-0.3,0.6-0.6,0.9-0.8L42.6,24.2z"/>
<path class="st0" d="M29.6,17L18.9,32.3l0,0l-3.4,4.8l0.1,0.1c0.3,0.4,0.5,0.6,0.9,0.6s0.6-0.2,0.9-0.6c0.6-1,1.9-1.3,2.9-0.7
	c0.3,0.2,0.5,0.4,0.7,0.7c0.3,0.4,0.5,0.6,0.9,0.6s0.6-0.2,0.9-0.6c0.6-1,1.9-1.3,2.9-0.7c0.3,0.2,0.5,0.4,0.7,0.7
	c0.3,0.4,0.5,0.6,0.9,0.6s0.6-0.2,0.9-0.6c0.3-0.4,0.8-0.8,1.3-0.9V17z"/>
<path class="st0" d="M42.1,33.1H30.9v3.2c0.5,0.2,0.9,0.5,1.2,0.9c0.3,0.4,0.5,0.6,0.9,0.6s0.6-0.2,0.9-0.6c0.6-1,1.9-1.3,2.9-0.7
	c0.3,0.2,0.5,0.4,0.7,0.7c0.3,0.4,0.5,0.6,0.9,0.6s0.6-0.2,0.9-0.6c0.4-0.6,1.1-1,1.8-1c0.7,0,1.4,0.4,1.8,1
	c0.3,0.4,0.5,0.6,0.9,0.6s0.6-0.2,0.9-0.6l0.1-0.1L42.1,33.1z"/>
<path class="st0" d="M34.2,21.9h-3.4v4.3h6.4L34.2,21.9z"/>
<polygon class="st0" points="33.4,20.7 30.9,17.1 30.9,20.7 "/>
<path class="st0" d="M17.8,31.8v-7.6L9.2,36.4c0.3,0.2,0.7,0.5,0.9,0.8c0.3,0.4,0.5,0.6,0.9,0.6s0.6-0.2,0.9-0.6
	c0.4-0.6,1.1-1,1.8-1c0.3,0,0.6,0.1,0.8,0.2L17.8,31.8z"/>
<polygon class="st0" points="17.8,22.1 17.8,6.1 8.9,6.1 8.9,34.8 "/>
<polygon class="st0" points="39.4,27.1 41.4,30.1 41.4,24.2 "/>
<polygon class="st0" points="38.1,27.4 30.9,27.4 30.9,31.9 41.3,31.9 "/>
<path class="st0" d="M30.2,14.6c0.2,0,0.4,0.1,0.5,0.3l7.9,11.3l2.8-4v-16H19v16.1l2.8,4l7.9-11.3C29.8,14.7,30,14.6,30.2,14.6z"/>
<polygon class="st0" points="19,24.2 19,30.1 21.1,27.1 "/>
<polygon class="st0" points="42.6,22.1 51.5,34.8 51.5,6.1 42.6,6.1 "/>
<path class="st1" d="M47.5,44.1c0.4,0.6,1.1,1,1.8,1c0.7,0,1.4-0.4,1.8-1c0.3-0.4,0.5-0.6,0.9-0.6c0.3,0,0.6-0.3,0.6-0.6
	c0-0.3-0.3-0.6-0.6-0.6c-0.7,0-1.4,0.4-1.8,1c-0.3,0.4-0.5,0.6-0.9,0.6s-0.6-0.2-0.9-0.6c-0.4-0.6-1.1-1-1.8-1c-0.7,0-1.4,0.4-1.8,1
	c-0.3,0.4-0.5,0.6-0.9,0.6s-0.6-0.2-0.9-0.6c-0.4-0.6-1.1-1-1.8-1c-0.7,0-1.4,0.4-1.8,1c-0.3,0.4-0.5,0.6-0.9,0.6s-0.6-0.2-0.9-0.6
	c-0.6-1-1.9-1.3-2.9-0.7c-0.3,0.2-0.5,0.4-0.7,0.7c-0.3,0.4-0.5,0.6-0.9,0.6s-0.6-0.2-0.9-0.6c-0.6-1-1.9-1.3-2.9-0.7
	c-0.3,0.2-0.6,0.4-0.7,0.7c-0.4,0.4-0.5,0.6-0.9,0.6s-0.6-0.2-0.9-0.6c-0.6-1-1.9-1.3-2.9-0.7c-0.3,0.2-0.5,0.4-0.7,0.7
	c-0.3,0.4-0.5,0.6-0.9,0.6s-0.6-0.2-0.9-0.6c-0.6-1-1.9-1.3-2.9-0.7c-0.3,0.2-0.6,0.4-0.7,0.7c-0.4,0.4-0.5,0.6-0.9,0.6
	s-0.6-0.2-0.9-0.6c-0.4-0.6-1.1-1-1.8-1c-0.7,0-1.4,0.4-1.8,1c-0.3,0.4-0.5,0.6-0.9,0.6s-0.6-0.2-0.9-0.6c-0.4-0.6-1.1-1-1.8-1
	c-0.3,0-0.6,0.3-0.6,0.6c0,0.3,0.3,0.6,0.6,0.6c0.4,0,0.6,0.2,0.9,0.6c0.4,0.6,1.1,1,1.8,1c0.7,0,1.4-0.4,1.8-1
	c0.3-0.4,0.5-0.6,0.9-0.6s0.6,0.2,0.9,0.6c0.4,0.6,1.1,1,1.8,1c0.7,0,1.4-0.4,1.8-1c0.3-0.4,0.5-0.6,0.9-0.6s0.6,0.2,0.9,0.6
	c0.4,0.6,1.1,1,1.8,1c0.7,0,1.4-0.4,1.8-1c0.3-0.4,0.5-0.6,0.9-0.6s0.6,0.2,0.9,0.6c0.4,0.6,1.1,1,1.8,1c0.7,0,1.4-0.4,1.8-1
	c0.3-0.4,0.5-0.6,0.9-0.6s0.6,0.2,0.9,0.6c0.4,0.6,1.1,1,1.8,1c0.7,0,1.4-0.4,1.8-1c0.3-0.4,0.5-0.6,0.9-0.6s0.6,0.2,0.9,0.6
	c0.6,1,1.9,1.3,2.9,0.7c0.3-0.2,0.5-0.4,0.7-0.7c0.3-0.4,0.5-0.6,0.9-0.6s0.6,0.2,0.9,0.6c0.6,1,1.9,1.3,2.9,0.7
	c0.3-0.2,0.6-0.4,0.7-0.7c0.3-0.4,0.5-0.6,0.9-0.6S47.2,43.7,47.5,44.1z"/>
<path class="st1" d="M52.1,39.2c-0.7,0-1.4,0.4-1.8,1c-0.3,0.4-0.5,0.6-0.9,0.6s-0.6-0.2-0.9-0.6c-0.6-1-1.9-1.3-2.9-0.7
	c-0.3,0.2-0.5,0.4-0.7,0.7c-0.3,0.4-0.5,0.6-0.9,0.6s-0.6-0.2-0.9-0.6c-0.4-0.6-1.1-1-1.8-1c-0.7,0-1.4,0.4-1.8,1
	c-0.3,0.4-0.5,0.6-0.9,0.6s-0.6-0.2-0.9-0.6c-0.6-1-1.9-1.3-2.9-0.7c-0.3,0.2-0.5,0.4-0.7,0.7c-0.3,0.4-0.5,0.6-0.9,0.6
	s-0.6-0.2-0.9-0.6c-0.6-1-1.9-1.3-2.9-0.7c-0.3,0.2-0.6,0.4-0.7,0.7c-0.4,0.4-0.5,0.6-0.9,0.6s-0.6-0.2-0.9-0.6
	c-0.4-0.6-1.1-1-1.8-1c-0.7,0-1.4,0.4-1.8,1c-0.3,0.4-0.5,0.6-0.9,0.6s-0.6-0.2-0.9-0.6c-0.6-1-1.9-1.3-2.9-0.7
	c-0.3,0.2-0.6,0.4-0.7,0.7c-0.4,0.4-0.5,0.6-0.9,0.6s-0.6-0.2-0.9-0.6c-0.4-0.6-1.1-1-1.8-1c-0.7,0-1.4,0.4-1.8,1
	c-0.3,0.4-0.5,0.6-0.9,0.6s-0.6-0.2-0.9-0.6c-0.4-0.6-1.1-1-1.8-1c-0.3,0-0.6,0.3-0.6,0.6c0,0.3,0.3,0.6,0.6,0.6c0,0,0,0,0,0
	c0.4,0,0.6,0.2,0.9,0.6c0.4,0.6,1.1,1,1.8,1c0.7,0,1.4-0.4,1.8-1c0.3-0.4,0.5-0.6,0.9-0.6s0.6,0.2,0.9,0.6c0.4,0.6,1.1,1,1.8,1
	c0.7,0,1.4-0.4,1.8-1c0.3-0.4,0.5-0.6,0.9-0.6s0.6,0.2,0.9,0.6c0.4,0.6,1.1,1,1.8,1c0.7,0,1.4-0.4,1.8-1c0.3-0.4,0.5-0.6,0.9-0.6
	s0.6,0.2,0.9,0.6c0.4,0.6,1.1,1,1.8,1c0.7,0,1.4-0.4,1.8-1c0.3-0.4,0.5-0.6,0.9-0.6s0.6,0.2,0.9,0.6c0.4,0.6,1.1,1,1.8,1
	c0.7,0,1.4-0.4,1.8-1c0.3-0.4,0.5-0.6,0.9-0.6s0.6,0.2,0.9,0.6c0.6,1,1.9,1.3,2.9,0.7c0.3-0.2,0.5-0.4,0.7-0.7
	c0.3-0.4,0.5-0.6,0.9-0.6s0.6,0.2,0.9,0.6c0.6,1,1.9,1.3,2.9,0.7c0.3-0.2,0.6-0.4,0.7-0.7c0.3-0.4,0.5-0.6,0.9-0.6s0.6,0.2,0.9,0.6
	c0.4,0.6,1.1,1,1.8,1c0.7,0,1.4-0.4,1.8-1c0.3-0.4,0.5-0.6,0.9-0.6c0.3,0,0.6-0.2,0.6-0.6c0,0,0,0,0,0
	C52.7,39.5,52.4,39.2,52.1,39.2z"/>
<path class="st1" d="M52.5,5.1c-0.1-0.1-0.3-0.2-0.4-0.2H8.3C8,4.9,7.7,5.1,7.7,5.5v31.2c0,0,0,0,0,0.1s0,0,0,0.1
	c0,0.3,0.3,0.6,0.6,0.6c0,0,0,0,0,0c0.4,0,0.6,0.2,0.9,0.6c0.4,0.6,1.1,1,1.8,1c0.7,0,1.4-0.4,1.8-1c0.3-0.4,0.5-0.6,0.9-0.6
	s0.6,0.2,0.9,0.6c0.4,0.6,1.1,1,1.8,1c0.7,0,1.4-0.4,1.8-1c0.3-0.4,0.5-0.6,0.9-0.6s0.6,0.2,0.9,0.6c0.4,0.6,1.1,1,1.8,1
	c0.7,0,1.4-0.4,1.8-1c0.3-0.4,0.5-0.6,0.9-0.6s0.6,0.2,0.9,0.6c0.4,0.6,1.1,1,1.8,1c0.7,0,1.4-0.4,1.8-1c0.3-0.4,0.5-0.6,0.9-0.6
	s0.6,0.2,0.9,0.6c0.4,0.6,1.1,1,1.9,1c0.7,0,1.4-0.4,1.8-1c0.3-0.4,0.5-0.6,0.9-0.6s0.6,0.2,0.9,0.6c0.6,1,1.9,1.3,2.9,0.7
	c0.3-0.2,0.5-0.4,0.7-0.7c0.3-0.4,0.5-0.6,0.9-0.6s0.6,0.2,0.9,0.6c0.6,1,1.9,1.3,2.9,0.7c0.3-0.2,0.5-0.4,0.7-0.7
	c0.3-0.4,0.5-0.6,0.9-0.6s0.6,0.2,0.9,0.6c0.4,0.6,1.1,1,1.8,1c0.7,0,1.4-0.4,1.8-1c0.3-0.4,0.5-0.6,0.9-0.6c0.3,0,0.6-0.2,0.6-0.6
	c0,0,0,0,0,0c0-0.1,0-0.1,0-0.2V5.5C52.8,5.3,52.7,5.2,52.5,5.1z M51.5,34.8l-8.9-12.6V6.1h8.9L51.5,34.8z M19,24.2l2.1,2.9l-2.1,3
	V24.2z M21.8,26.1l-2.8-4v-16h22.4v16.1l-2.8,4l-7.9-11.3c-0.1-0.2-0.3-0.3-0.5-0.3c-0.2,0-0.4,0.1-0.5,0.3L21.8,26.1z M33.4,20.7
	h-2.6v-3.6L33.4,20.7z M30.9,21.9h3.4l3,4.4h-6.4L30.9,21.9z M30.9,27.4h7.3l3.2,4.5H30.9L30.9,27.4z M39.4,27.1l2.1-2.9v5.9
	L39.4,27.1z M17.8,6.1v16.1L8.9,34.8V6.1H17.8z M12,37.2c-0.3,0.4-0.5,0.6-0.9,0.6s-0.6-0.2-0.9-0.6c-0.2-0.3-0.6-0.6-0.9-0.8
	l8.5-12.2v7.6l-3.2,4.6c-0.3-0.1-0.5-0.2-0.8-0.2C13.1,36.2,12.4,36.6,12,37.2z M28.4,37.2c-0.4,0.4-0.5,0.6-0.9,0.6
	s-0.6-0.2-0.9-0.6c-0.6-1-1.9-1.3-2.9-0.7c-0.3,0.2-0.5,0.4-0.7,0.7c-0.3,0.4-0.5,0.6-0.9,0.6s-0.6-0.2-0.9-0.6
	c-0.6-1-1.9-1.3-2.9-0.7c-0.3,0.2-0.5,0.4-0.7,0.7c-0.4,0.4-0.5,0.6-0.9,0.6s-0.6-0.2-0.9-0.6l-0.1-0.1l3.4-4.8l0,0L29.6,17v19.3
	C29.1,36.4,28.7,36.8,28.4,37.2L28.4,37.2z M43.9,37.8c-0.4,0-0.6-0.2-0.9-0.6c-0.4-0.6-1.1-1-1.8-1c-0.7,0-1.4,0.4-1.8,1
	c-0.3,0.4-0.5,0.6-0.9,0.6s-0.6-0.2-0.9-0.6c-0.6-1-1.9-1.3-2.9-0.7c-0.3,0.2-0.5,0.4-0.7,0.7c-0.3,0.4-0.5,0.6-0.9,0.6
	s-0.6-0.2-0.9-0.6c-0.3-0.4-0.7-0.7-1.2-0.9v-3.2h11.2l2.8,4l-0.1,0.1C44.5,37.6,44.3,37.8,43.9,37.8L43.9,37.8z M50.3,37.2
	c-0.3,0.4-0.5,0.6-0.9,0.6s-0.6-0.2-0.9-0.6c-0.4-0.6-1.1-1-1.8-1c-0.3,0-0.5,0.1-0.8,0.2l-3.2-4.6v-7.6l8.6,12.2
	C50.9,36.6,50.6,36.9,50.3,37.2L50.3,37.2z"/>
<polygon class="st0" points="67.2,22.9 64.8,29.9 69.6,29.9 "/>
<path class="st0" d="M251.5,21.8h-2.8v4.8h2.8c0.7,0.1,1.4-0.2,2-0.6c0.5-0.5,0.7-1.1,0.6-1.8c0-0.7-0.2-1.3-0.6-1.8
	C252.9,21.9,252.2,21.7,251.5,21.8z"/>
<path class="st0" d="M93.6,21.9h-2.2v10.8h2.2c1.5,0.1,3-0.4,4.1-1.4c1-1.1,1.6-2.5,1.5-4c0.1-1.5-0.4-2.9-1.5-4
	C96.6,22.3,95.1,21.8,93.6,21.9z"/>
<path class="st1" d="M63.7,33.3h7l1.2,3.4h4.8l-6.8-18.7h-5.2l-6.9,18.7h4.8L63.7,33.3z M67.2,22.9l2.3,6.9h-4.7L67.2,22.9z"/>
<path class="st1" d="M102.6,32.2c0.8-1.5,1.2-3.2,1.2-4.9c0-1.7-0.4-3.4-1.2-4.9c-0.8-1.4-2-2.6-3.4-3.3c-1.6-0.8-3.4-1.2-5.2-1.2
	h-7.1v18.8H94c1.8,0,3.6-0.4,5.2-1.2C100.7,34.8,101.8,33.6,102.6,32.2z M97.7,31.3c-1.1,1-2.6,1.5-4.1,1.4h-2.2V21.9h2.2
	c1.5-0.1,3,0.4,4.1,1.4c1,1.1,1.6,2.5,1.5,4C99.3,28.8,98.7,30.2,97.7,31.3z"/>
<polygon class="st1" points="127.5,17.9 122.9,32.1 118.3,17.9 113.4,17.9 119.9,36.8 125.8,36.8 132.4,17.9 "/>
<polygon class="st1" points="154.2,21.6 154.2,17.9 142.5,17.9 142.5,36.8 154.2,36.8 154.2,33.1 147,33.1 147,28.9 153.4,28.9 
	153.4,25.5 147,25.5 147,21.6 "/>
<polygon class="st1" points="181.9,17.9 177.3,17.9 177.3,29.6 169.7,17.9 165.2,17.9 165.2,36.8 169.7,36.8 169.7,25.2 177.3,36.8 
	181.9,36.8 "/>
<polygon class="st1" points="201.8,21.6 206.9,21.6 206.9,17.9 192.2,17.9 192.2,21.6 197.2,21.6 197.2,36.8 201.8,36.8 "/>
<path class="st1" d="M232.7,28.8V17.9h-4.6v10.9c0.1,1-0.2,2-0.8,2.9c-1.4,1.3-3.5,1.3-4.9,0c-0.6-0.8-0.9-1.8-0.8-2.9V17.9h-4.5
	v10.9c0,1.6,0.3,3.1,1,4.5c0.6,1.2,1.5,2.1,2.7,2.7c1.2,0.6,2.6,0.9,4,0.9c1.4,0,2.8-0.3,4-0.9c1.2-0.6,2.2-1.6,2.8-2.7
	C232.4,31.9,232.8,30.3,232.7,28.8z"/>
<path class="st1" d="M254.4,29.4c1.3-0.3,2.5-1,3.3-2c0.8-1,1.2-2.2,1.1-3.5c0-1.1-0.2-2.1-0.8-3.1c-0.5-0.9-1.4-1.7-2.3-2.1
	c-1.2-0.5-2.5-0.8-3.8-0.8h-7.8v18.8h4.6v-7.1h1l4.1,7.1h5L254.4,29.4z M253.5,25.9c-0.6,0.4-1.3,0.7-2,0.6h-2.8v-4.8h2.8
	c0.7-0.1,1.4,0.2,2,0.6c0.4,0.5,0.7,1.1,0.6,1.8C254.2,24.8,254,25.5,253.5,25.9z"/>
<polygon class="st1" points="281.2,21.6 281.2,17.9 269.5,17.9 269.5,36.8 281.2,36.8 281.2,33.1 274,33.1 274,28.9 280.4,28.9 
	280.4,25.5 274,25.5 274,21.6 "/>
</svg>
